<svg width="30" height="30" viewBox="0 0 30 30" fill="none" xmlns="http://www.w3.org/2000/svg">
<path d="M23.5363 10.9602C24.5667 10.1171 25.2225 9.41452 25.5035 8.85246C24.8946 9.13349 24.1686 9.34426 23.3255 9.48478C24.1686 8.87588 24.7307 8.12646 25.0117 7.23653C24.0749 7.75176 23.2084 8.07963 22.4122 8.22014C21.8501 7.5644 21.1241 7.17799 20.2342 7.06089C19.3443 6.94379 18.5129 7.06089 17.74 7.41218C16.9672 7.76347 16.3466 8.34895 15.8782 9.16862C15.4098 9.98829 15.2927 10.8899 15.5269 11.8735C12.3888 11.6862 9.62529 10.3045 7.23653 7.72834C6.72131 8.66511 6.61593 9.68384 6.92037 10.7845C7.22482 11.8852 7.72834 12.6464 8.43091 13.0679C7.91569 13.0211 7.35363 12.8571 6.74473 12.5761C6.79157 14.5902 7.82201 15.9251 9.83607 16.5808C9.274 16.7213 8.71194 16.7447 8.14988 16.6511C8.71194 18.3372 9.95316 19.274 11.8735 19.4614C11.171 20.0703 10.2576 20.5269 9.13349 20.8314C8.00937 21.1358 6.9555 21.2178 5.9719 21.0773C8.07963 22.3888 10.2342 22.9977 12.4356 22.904C15.7143 22.7635 18.3724 21.6042 20.4098 19.4262C22.4473 17.2482 23.4895 14.4262 23.5363 10.9602ZM26.9789 0C27.822 0 28.5363 0.29274 29.1218 0.87822C29.7073 1.4637 30 2.15457 30 2.95082V26.9789C30 27.7752 29.7073 28.466 29.1218 29.0515C28.5363 29.637 27.822 29.9297 26.9789 29.9297H3.02108C2.17799 29.9297 1.4637 29.637 0.87822 29.0515C0.29274 28.466 0 27.7752 0 26.9789V2.95082C0 2.15457 0.29274 1.4637 0.87822 0.87822C1.4637 0.29274 2.17799 0 3.02108 0H26.9789Z" fill="white"/>
</svg>
