<?xml version="1.0" standalone="no"?>
<!DOCTYPE svg PUBLIC "-//W3C//DTD SVG 20010904//EN"
 "http://www.w3.org/TR/2001/REC-SVG-20010904/DTD/svg10.dtd">
<svg version="1.0" xmlns="http://www.w3.org/2000/svg"
 width="2544.000000pt" height="2544.000000pt" viewBox="0 0 2544.000000 2544.000000"
 preserveAspectRatio="xMidYMid meet">
<metadata>
Created by potrace 1.11, written by Peter Selinger 2001-2013
</metadata>
<g transform="translate(0.000000,2544.000000) scale(0.100000,-0.100000)"
fill="#000000" stroke="none">
<path d="M23195 25238 c-39 -19 -329 -174 -430 -228 -27 -15 -113 -60 -190
-100 -77 -40 -144 -76 -150 -80 -5 -4 -77 -42 -160 -85 -82 -43 -154 -81 -160
-85 -5 -4 -72 -39 -148 -79 -76 -39 -157 -82 -180 -95 -23 -13 -89 -48 -147
-78 -58 -31 -134 -71 -170 -90 -71 -39 -326 -174 -485 -258 -55 -29 -122 -65
-150 -80 -60 -33 -278 -148 -320 -168 -16 -9 -43 -25 -60 -36 -16 -12 -31 -20
-33 -18 -1 1 -30 -13 -65 -31 -83 -46 -203 -110 -306 -164 -85 -45 -201 -106
-326 -173 -38 -21 -115 -61 -170 -90 -55 -29 -122 -65 -150 -80 -27 -15 -99
-53 -160 -85 -60 -32 -132 -70 -160 -85 -27 -15 -99 -53 -160 -85 -60 -32
-141 -75 -180 -95 -38 -21 -212 -113 -385 -205 -173 -92 -351 -186 -395 -210
-181 -96 -237 -126 -390 -207 -88 -47 -209 -111 -270 -143 -60 -32 -123 -65
-140 -75 -16 -9 -84 -45 -150 -80 -66 -34 -142 -75 -170 -90 -27 -15 -108 -58
-180 -95 -71 -37 -134 -71 -140 -75 -5 -4 -57 -32 -114 -61 -56 -30 -133 -70
-170 -89 -36 -20 -113 -61 -171 -92 -155 -82 -744 -394 -825 -438 -74 -39
-167 -89 -350 -185 -60 -32 -128 -68 -150 -80 -37 -20 -120 -65 -310 -165 -38
-20 -99 -53 -135 -72 -36 -19 -112 -60 -170 -90 -166 -88 -270 -143 -495 -263
-115 -61 -217 -115 -225 -118 -8 -4 -42 -22 -75 -40 -110 -60 -219 -119 -665
-355 -47 -24 -112 -59 -145 -77 -33 -18 -105 -56 -160 -85 -55 -29 -127 -67
-160 -85 -33 -18 -109 -59 -170 -91 -60 -32 -159 -84 -219 -116 -60 -31 -112
-55 -117 -53 -4 3 -10 23 -14 45 -4 22 -10 38 -15 35 -4 -3 -18 26 -29 64 -12
38 -25 71 -29 73 -4 2 -18 36 -31 76 -12 39 -26 72 -30 72 -3 0 -13 20 -20 46
-7 25 -20 51 -27 59 -8 7 -11 21 -8 29 3 9 2 16 -4 16 -5 0 -18 23 -28 50 -10
28 -22 50 -27 50 -4 0 -5 5 -2 10 3 6 1 10 -4 10 -6 0 -11 8 -11 18 0 9 -7 26
-15 36 -8 11 -15 28 -15 38 0 10 -5 18 -12 18 -6 0 -8 3 -5 6 4 4 -2 19 -12
33 -10 14 -22 37 -26 51 -4 14 -11 27 -14 30 -3 3 -17 29 -30 58 -14 28 -27
52 -31 52 -3 0 -14 22 -24 49 -10 28 -24 55 -31 61 -8 6 -22 31 -31 56 -9 24
-21 41 -26 38 -6 -4 -7 2 -3 16 5 14 3 20 -3 16 -6 -3 -18 14 -27 38 -10 25
-23 47 -30 50 -7 2 -21 25 -30 50 -10 25 -22 46 -26 46 -5 0 -16 18 -25 40 -9
22 -20 40 -25 40 -4 0 -20 24 -34 53 -15 28 -35 60 -46 70 -10 10 -19 24 -19
33 0 8 -7 17 -15 20 -8 4 -12 10 -9 15 3 5 1 9 -4 9 -5 0 -20 20 -33 45 -13
25 -27 45 -31 45 -4 0 -15 16 -24 35 -9 19 -20 32 -25 29 -5 -3 -14 5 -19 18
-14 33 -32 59 -58 84 -12 11 -22 25 -22 30 0 5 -9 15 -20 22 -11 7 -20 19 -20
27 0 8 -9 20 -19 27 -10 6 -17 18 -14 25 3 7 -2 13 -11 13 -9 0 -16 4 -16 9 0
5 -16 24 -35 42 -19 19 -35 37 -35 42 0 5 -22 30 -50 57 -27 27 -50 52 -50 58
0 14 -36 43 -43 35 -4 -3 -7 -2 -7 3 0 14 -29 51 -75 92 -21 21 -73 68 -115
106 -41 39 -94 88 -117 110 -56 54 -76 71 -83 71 -4 0 -14 7 -22 15 -9 8 -33
29 -54 45 -21 17 -48 40 -60 51 -13 12 -25 19 -28 16 -3 -3 -6 0 -6 6 0 7 -7
12 -15 12 -7 0 -19 8 -24 18 -6 9 -11 13 -11 7 0 -6 -3 -6 -8 1 -13 19 -125
94 -133 89 -4 -3 -10 4 -14 15 -3 11 -10 19 -14 17 -10 -3 -82 35 -103 55 -9
10 -29 20 -43 24 -14 3 -25 12 -25 20 0 8 -3 13 -8 11 -10 -3 -94 35 -107 48
-5 6 -30 20 -55 30 -25 11 -48 23 -51 28 -3 5 -8 8 -10 7 -5 -2 -63 23 -69 30
-3 4 -31 17 -63 29 -31 13 -57 28 -57 33 0 6 -9 8 -20 5 -11 -3 -20 -1 -20 5
0 5 -4 6 -10 3 -6 -3 -10 -2 -10 4 0 6 -7 8 -15 5 -8 -4 -15 -1 -15 6 0 6 -4
8 -10 5 -5 -3 -10 -2 -10 4 0 5 -13 12 -30 16 -16 4 -30 11 -30 16 0 6 -4 8
-9 5 -9 -6 -103 23 -111 34 -5 7 -34 18 -67 25 -10 2 -30 8 -45 14 -16 6 -28
8 -28 5 0 -4 -6 -1 -14 5 -14 12 -34 18 -89 28 -15 3 -27 10 -27 15 0 5 -5 6
-10 3 -6 -4 -16 -2 -23 3 -15 13 -169 54 -175 47 -3 -3 -13 2 -23 11 -10 9
-25 14 -34 11 -8 -4 -15 -2 -15 3 0 5 -9 7 -20 5 -11 -2 -20 -1 -20 4 0 4 -10
7 -22 8 -13 0 -39 4 -58 7 -19 4 -42 7 -50 8 -8 0 -17 4 -20 8 -3 4 -68 18
-145 31 -77 13 -142 27 -146 31 -3 4 -33 9 -67 10 -34 2 -62 5 -62 8 0 3 -17
6 -37 7 -21 1 -60 5 -88 8 -27 4 -63 8 -80 8 -16 1 -36 6 -43 10 -7 5 -41 10
-75 12 -34 2 -168 10 -297 19 -489 31 -1050 29 -1420 -5 -63 -6 -143 -12 -176
-13 -34 -2 -68 -7 -75 -12 -8 -5 -27 -9 -44 -10 -16 -1 -52 -5 -80 -8 -27 -4
-66 -8 -85 -10 -19 -2 -35 -4 -35 -6 0 -1 -25 -4 -55 -6 -30 -3 -57 -8 -60
-13 -3 -4 -27 -12 -55 -16 -27 -5 -52 -9 -55 -10 -3 0 -42 -7 -88 -14 -45 -7
-82 -17 -82 -21 0 -4 -10 -8 -22 -9 -50 -2 -73 -6 -78 -13 -3 -4 -24 -9 -45
-12 -55 -5 -67 -9 -83 -24 -8 -7 -17 -10 -22 -7 -5 3 -21 0 -37 -6 -15 -6 -37
-13 -48 -15 -61 -12 -75 -17 -75 -26 0 -6 -6 -8 -14 -5 -8 3 -17 3 -21 -1 -4
-4 -11 -8 -16 -8 -5 -1 -10 -3 -11 -4 -3 -2 -21 -6 -63 -12 -11 -2 -24 -9 -30
-15 -5 -7 -19 -14 -30 -16 -11 -1 -25 -6 -31 -9 -6 -4 -23 -9 -39 -12 -16 -3
-31 -9 -34 -13 -9 -12 -81 -36 -88 -29 -3 3 -12 -2 -20 -10 -9 -8 -22 -13 -29
-10 -8 3 -14 -1 -14 -10 0 -8 -4 -12 -10 -9 -5 3 -10 2 -10 -4 0 -5 -9 -8 -20
-6 -11 2 -20 0 -20 -6 0 -5 -9 -9 -20 -9 -11 0 -20 -4 -20 -10 0 -5 -7 -7 -15
-4 -8 4 -15 2 -15 -4 0 -5 -25 -19 -56 -31 -30 -11 -62 -28 -71 -36 -9 -9 -21
-14 -29 -11 -7 3 -14 1 -16 -4 -2 -4 -12 -10 -23 -12 -11 -1 -26 -11 -33 -20
-7 -10 -22 -18 -33 -18 -10 0 -27 -8 -37 -17 -9 -10 -37 -27 -62 -37 -25 -11
-54 -28 -66 -38 -11 -10 -24 -15 -27 -11 -4 3 -7 1 -7 -5 0 -7 -3 -11 -7 -10
-12 2 -47 -14 -58 -28 -5 -6 -30 -22 -55 -35 -25 -13 -51 -30 -58 -36 -7 -7
-19 -13 -25 -13 -7 0 -23 -12 -36 -25 -13 -14 -28 -25 -35 -25 -6 0 -19 -9
-29 -20 -10 -12 -21 -19 -25 -16 -5 3 -16 -6 -26 -20 -11 -13 -23 -24 -28 -24
-13 0 -70 -42 -91 -68 -11 -13 -26 -21 -34 -18 -9 4 -17 -1 -20 -13 -3 -10
-20 -27 -39 -37 -19 -10 -34 -22 -34 -26 0 -5 -11 -13 -24 -19 -13 -6 -29 -22
-35 -35 -6 -13 -16 -24 -22 -24 -13 0 -27 -11 -84 -67 -19 -18 -39 -33 -45
-33 -6 0 -15 -10 -21 -23 -6 -13 -20 -27 -32 -32 -12 -6 -28 -22 -35 -37 -7
-15 -21 -30 -32 -33 -10 -3 -22 -15 -25 -26 -4 -10 -10 -17 -14 -15 -4 3 -23
-13 -42 -36 -63 -75 -76 -88 -82 -81 -4 3 -11 -6 -16 -20 -6 -15 -19 -32 -31
-39 -11 -7 -20 -19 -20 -26 0 -7 -11 -18 -25 -24 -14 -6 -25 -17 -25 -23 0 -7
-7 -19 -16 -26 -9 -7 -20 -24 -25 -37 -5 -13 -13 -20 -19 -17 -5 3 -12 -5 -16
-19 -3 -14 -15 -28 -25 -31 -10 -4 -19 -11 -19 -18 0 -6 -18 -32 -40 -58 -22
-26 -40 -55 -40 -63 0 -9 -6 -16 -13 -16 -7 0 -21 -15 -32 -32 -10 -18 -29
-46 -43 -62 -13 -17 -28 -40 -33 -53 -5 -13 -13 -23 -18 -23 -5 0 -13 -9 -16
-21 -4 -12 -14 -30 -24 -40 -9 -11 -15 -22 -13 -24 1 -3 -7 -14 -18 -25 -11
-11 -20 -27 -20 -35 0 -8 -6 -15 -13 -15 -8 0 -25 -28 -39 -62 -14 -35 -29
-62 -35 -61 -5 1 -15 -15 -22 -35 -8 -20 -21 -46 -31 -57 -9 -11 -26 -42 -36
-70 -10 -27 -21 -52 -24 -55 -4 -3 -17 -29 -30 -57 -13 -29 -27 -53 -32 -53
-4 0 -8 -7 -8 -15 0 -8 -4 -23 -10 -33 -11 -18 -32 -75 -30 -80 0 -1 -6 -9
-13 -17 -8 -8 -21 -34 -28 -59 -7 -26 -17 -46 -22 -46 -4 0 -5 -4 -2 -10 3 -5
2 -10 -3 -10 -8 0 -15 -19 -44 -118 -5 -18 -14 -30 -19 -27 -5 4 -9 -1 -9 -10
0 -32 -32 -115 -43 -108 -6 4 -8 -4 -3 -21 4 -16 3 -25 -2 -22 -5 3 -15 -20
-22 -51 -8 -30 -19 -60 -25 -67 -6 -6 -22 -51 -35 -101 -13 -49 -27 -92 -30
-95 -9 -6 -22 -47 -26 -77 -1 -12 -9 -36 -18 -54 -9 -17 -13 -35 -10 -40 3 -5
1 -9 -4 -9 -8 0 -20 -42 -39 -132 -3 -16 -10 -28 -15 -28 -6 0 -8 -11 -6 -25
3 -14 2 -25 -3 -25 -4 0 -15 -35 -25 -77 -9 -43 -21 -84 -26 -90 -6 -7 -8 -20
-4 -28 3 -8 2 -15 -2 -15 -8 0 -42 -142 -42 -173 0 -10 -4 -16 -8 -13 -11 6
-46 -179 -37 -193 3 -6 1 -11 -4 -11 -6 0 -11 -12 -11 -26 0 -14 -4 -23 -9
-20 -10 6 -25 -90 -16 -104 3 -6 2 -10 -3 -10 -6 0 -16 -38 -23 -85 -6 -46
-15 -82 -19 -80 -4 2 -15 -52 -25 -120 -11 -73 -22 -122 -28 -118 -6 3 -8 -9
-5 -31 2 -20 1 -36 -2 -36 -7 0 -40 -200 -40 -237 0 -13 -5 -23 -11 -23 -6 0
-10 -15 -8 -32 1 -18 -1 -40 -4 -48 -7 -20 -24 -129 -33 -212 -3 -38 -11 -68
-16 -68 -7 0 -9 -18 -6 -45 3 -24 2 -43 -1 -40 -4 2 -16 -69 -26 -158 -10 -89
-21 -166 -25 -172 -4 -5 -18 -116 -30 -245 -13 -129 -27 -237 -30 -240 -4 -3
-11 -48 -15 -100 -4 -52 -9 -115 -11 -140 -2 -25 -9 -108 -15 -185 -6 -77 -15
-149 -20 -160 -8 -20 -39 -419 -39 -507 0 -28 -5 -48 -11 -48 -7 0 -10 -27 -8
-84 2 -46 1 -82 -2 -80 -6 3 -17 -181 -25 -425 -2 -74 -7 -137 -9 -139 -3 -3
-5 -54 -5 -113 0 -59 -4 -109 -9 -111 -6 -2 -12 -120 -16 -271 -3 -148 -8
-274 -10 -280 -22 -69 -34 -2644 -15 -3327 19 -698 23 -820 29 -820 3 0 5 -50
3 -111 -2 -62 1 -115 5 -118 5 -3 17 -168 27 -366 10 -198 21 -361 25 -362 3
-2 4 -33 3 -69 -2 -37 1 -76 6 -88 6 -12 18 -133 27 -271 10 -137 22 -252 26
-253 5 -2 9 -22 9 -44 0 -71 40 -482 49 -503 5 -11 19 -117 31 -235 13 -118
26 -219 30 -225 4 -5 16 -79 26 -163 9 -83 21 -152 24 -152 4 0 5 -12 2 -26
-2 -14 0 -35 6 -47 6 -12 18 -79 28 -150 9 -70 20 -127 24 -127 4 0 5 -14 2
-30 -2 -17 0 -36 6 -43 5 -6 17 -67 27 -134 10 -68 22 -123 26 -123 4 0 5 -9
2 -21 -3 -11 -1 -30 5 -42 6 -12 18 -67 28 -122 9 -55 20 -102 24 -105 3 -3
17 -63 29 -135 12 -71 26 -132 29 -135 4 -3 17 -57 30 -120 13 -63 27 -117 31
-120 4 -3 16 -49 26 -103 10 -53 22 -97 26 -97 5 0 6 -7 2 -16 -3 -9 -1 -19 5
-23 6 -4 19 -43 28 -86 10 -44 21 -81 25 -83 4 -2 4 -12 2 -24 -3 -11 0 -23 6
-27 7 -4 19 -37 27 -72 8 -35 17 -71 21 -79 3 -8 5 -22 4 -30 -2 -8 1 -11 5
-7 7 7 16 -21 41 -123 3 -14 9 -27 13 -30 3 -3 17 -41 30 -85 12 -44 26 -82
31 -85 4 -3 17 -39 28 -80 12 -41 26 -76 31 -78 6 -2 10 -10 10 -18 0 -19 40
-138 48 -144 4 -3 16 -31 26 -62 11 -32 23 -58 27 -58 5 0 6 -7 3 -15 -4 -8
-2 -15 3 -15 6 0 18 -27 28 -60 10 -33 22 -60 27 -60 4 0 7 -3 6 -7 -1 -5 8
-30 20 -56 12 -27 22 -53 22 -59 0 -5 6 -16 14 -24 8 -7 22 -35 32 -61 10 -27
21 -50 25 -53 11 -9 39 -68 39 -84 0 -8 6 -21 13 -28 18 -20 47 -77 47 -93 0
-8 6 -18 13 -22 8 -4 22 -30 32 -56 10 -26 23 -51 29 -55 6 -4 20 -26 31 -49
11 -24 23 -43 27 -43 3 0 17 -21 29 -47 13 -27 29 -54 36 -61 7 -8 18 -23 24
-35 20 -40 84 -132 97 -140 6 -4 12 -14 12 -21 0 -8 11 -24 25 -37 13 -13 25
-30 25 -36 0 -7 5 -13 10 -13 6 0 10 -7 10 -15 0 -9 7 -18 15 -21 8 -4 13 -10
10 -14 -3 -4 2 -10 10 -14 8 -3 15 -12 15 -21 0 -8 5 -15 10 -15 6 0 10 -7 10
-15 0 -8 8 -19 19 -24 10 -6 24 -24 31 -40 7 -17 20 -33 30 -36 10 -3 21 -17
24 -31 4 -14 11 -22 16 -19 6 3 14 -5 20 -19 5 -14 18 -31 29 -37 11 -8 17
-19 13 -28 -3 -9 -2 -13 2 -9 7 6 46 -25 46 -36 0 -3 14 -19 31 -38 17 -18 34
-36 37 -40 4 -5 23 -24 42 -43 19 -20 44 -45 55 -56 52 -53 195 -188 195 -183
0 2 24 -19 52 -48 29 -29 55 -53 59 -53 3 0 18 -15 33 -33 15 -17 34 -32 42
-32 7 0 18 -9 24 -20 6 -11 15 -20 21 -20 5 0 21 -12 34 -26 14 -15 25 -23 25
-18 0 5 11 -3 24 -18 13 -16 28 -28 33 -28 5 0 18 -9 28 -20 10 -11 23 -19 29
-17 6 2 15 -5 21 -16 5 -11 19 -21 30 -23 11 -2 24 -9 30 -16 5 -8 27 -24 48
-37 20 -12 37 -27 37 -32 0 -5 6 -9 14 -9 7 0 19 -7 26 -15 7 -8 16 -13 20
-10 4 2 20 -7 36 -20 16 -14 35 -25 42 -25 7 0 15 -6 18 -14 5 -13 52 -37 77
-40 5 -1 15 -10 23 -20 8 -11 14 -16 14 -12 0 5 6 4 13 -2 6 -6 15 -10 18 -9
4 1 28 -12 55 -29 27 -17 64 -37 81 -44 18 -7 33 -17 33 -23 0 -6 3 -7 6 -4 4
3 16 1 28 -5 11 -7 27 -13 35 -14 8 -2 18 -9 22 -16 5 -7 9 -8 9 -3 0 6 3 6 8
-1 4 -5 33 -21 64 -33 32 -13 58 -27 58 -32 0 -5 3 -8 8 -7 12 2 66 -14 80
-25 6 -5 12 -6 12 -1 0 5 5 2 10 -6 5 -8 14 -16 20 -16 5 -1 12 -3 15 -4 3 -1
8 -3 13 -4 27 -4 98 -32 104 -40 3 -5 15 -10 25 -11 10 0 24 -4 31 -9 11 -6
30 -12 70 -20 8 -1 17 -7 20 -12 7 -9 27 -16 50 -17 6 0 12 -3 12 -6 0 -3 17
-7 37 -9 20 -1 42 -7 50 -13 7 -6 13 -8 13 -3 0 5 4 4 8 -3 4 -7 23 -14 42
-15 19 -2 38 -7 41 -12 4 -4 20 -9 36 -10 16 -2 35 -6 41 -10 7 -4 16 -5 21
-2 5 4 11 1 13 -6 4 -12 29 -20 66 -20 12 0 22 -3 22 -7 0 -4 10 -8 23 -9 28
-2 80 -9 87 -12 3 -1 9 -2 14 -1 4 1 13 -3 20 -8 6 -5 56 -17 111 -27 55 -10
103 -22 106 -27 4 -5 18 -8 33 -5 14 3 27 2 28 -3 3 -7 62 -15 164 -23 17 -2
35 -5 40 -7 5 -3 23 -5 39 -4 17 1 36 -3 43 -8 7 -5 31 -11 55 -13 23 -1 65
-5 92 -7 363 -32 580 -39 1040 -34 426 5 546 10 780 32 33 4 84 8 113 10 30 2
59 8 65 13 7 5 27 8 44 7 18 0 33 2 33 6 0 3 12 5 28 4 15 -1 31 0 36 3 5 3
23 7 40 8 115 9 161 16 164 24 2 6 12 10 23 10 28 0 169 29 199 41 26 10 79
20 118 22 12 0 22 5 22 10 0 5 7 7 15 4 8 -4 17 -2 20 3 3 5 14 7 25 5 11 -2
20 2 20 8 0 7 14 13 31 14 17 1 37 7 44 13 6 5 14 7 17 4 6 -6 101 16 108 26
7 9 92 34 112 33 10 0 18 3 18 7 0 5 8 7 17 6 9 -2 25 6 35 16 10 10 29 18 43
18 14 0 25 4 25 9 0 5 8 7 19 4 10 -2 24 1 32 9 13 12 97 47 125 52 7 1 18 7
26 14 8 6 18 9 21 5 4 -3 7 -1 7 6 0 7 5 9 10 6 6 -3 10 -1 10 5 0 7 7 10 15
6 8 -3 15 -1 15 5 0 6 5 7 10 4 6 -3 10 -2 10 2 0 5 27 19 60 32 33 13 60 27
60 30 0 6 43 27 73 36 4 1 10 4 15 5 4 1 10 2 15 1 4 0 7 3 7 8 0 5 23 20 50
32 27 12 50 26 50 30 0 8 61 35 72 32 4 -2 10 6 13 17 4 11 11 17 17 14 6 -4
17 1 25 11 7 11 13 16 13 12 0 -11 44 14 53 29 4 8 14 14 21 14 7 0 21 8 32
18 11 9 35 26 54 36 19 11 46 30 60 43 14 13 30 23 36 23 6 0 20 11 30 25 10
14 26 25 34 25 8 0 26 14 40 30 14 17 29 30 35 30 6 0 17 8 26 17 8 10 34 34
59 53 81 65 125 105 177 160 29 30 63 64 75 75 12 11 34 32 48 47 14 15 51 54
83 87 31 33 57 65 57 70 0 6 9 16 20 23 11 7 20 17 20 22 0 5 7 16 15 25 37
37 75 85 75 93 0 5 4 6 10 3 6 -3 7 1 4 9 -4 11 0 16 10 16 9 0 16 5 16 11 0
6 16 33 35 59 19 26 35 52 35 56 0 5 9 15 20 22 11 6 26 28 35 48 8 19 19 33
25 29 5 -3 10 1 10 10 0 15 27 64 41 75 7 6 36 59 45 83 3 9 11 17 16 17 5 0
6 5 3 10 -3 6 -2 10 2 10 5 0 17 22 28 49 10 28 22 48 26 46 4 -3 17 22 29 55
12 33 26 58 30 55 4 -3 16 18 26 46 11 28 24 54 31 56 6 3 19 29 29 59 9 30
20 54 25 54 5 0 6 7 3 15 -4 8 -2 15 2 15 9 0 26 35 39 78 3 12 11 22 16 22 6
0 7 9 4 21 -4 13 -3 19 2 16 6 -4 18 21 29 53 10 33 23 60 28 60 4 0 6 7 2 15
-3 8 -1 15 4 15 5 0 16 26 25 58 9 31 20 59 24 62 4 3 18 41 31 85 13 44 27
82 31 85 6 5 22 56 24 75 0 6 3 15 7 20 3 6 9 27 13 47 4 21 10 36 14 33 4 -2
15 31 25 73 10 42 22 82 28 89 5 7 7 17 3 23 -3 5 -2 10 3 10 8 0 14 22 39
143 3 15 10 27 15 27 6 0 8 9 5 20 -3 11 -2 22 2 24 4 3 16 43 26 90 10 48 23
86 28 86 4 0 7 10 6 23 -2 12 0 27 4 33 3 6 9 26 12 45 11 75 29 144 38 150 5
4 7 19 3 34 -4 15 -3 24 2 21 4 -3 17 47 27 110 10 63 22 114 25 114 4 0 18
66 30 148 13 81 27 149 30 152 8 6 50 247 53 300 1 19 5 37 8 40 4 3 15 68 24
145 10 77 22 143 28 146 5 4 7 25 4 48 -3 23 -1 39 4 35 5 -3 10 13 11 35 4
104 30 295 41 302 5 4 8 27 6 53 -2 25 -2 46 2 46 3 0 14 89 24 197 10 109 22
200 26 203 4 3 11 50 14 105 21 297 38 480 45 485 5 4 25 263 30 390 4 120 25
386 30 390 8 6 25 330 37 705 2 66 8 129 14 141 6 12 9 72 7 146 -1 70 0 124
4 122 4 -3 8 48 8 113 0 65 5 251 10 413 6 162 13 796 17 1408 l6 1112 -491 0
c-321 0 -492 3 -492 10 0 7 -818 10 -2435 10 l-2435 0 0 -235 0 -235 -370 0
-370 0 0 -1415 0 -1415 1536 0 1536 0 -6 -297 c-31 -1396 -146 -2332 -376
-3082 -207 -672 -525 -1098 -998 -1335 -524 -262 -1262 -271 -1766 -19 -467
232 -810 681 -1031 1348 -210 636 -356 1625 -440 2985 -114 1863 -110 4704 10
6545 87 1332 242 2363 445 2967 248 737 647 1208 1184 1397 168 59 308 82 538
88 231 6 366 -4 556 -42 475 -96 819 -329 1084 -735 146 -222 313 -598 433
-973 76 -237 76 -231 -5 -274 -36 -19 -150 -80 -255 -135 -208 -110 -256 -136
-482 -257 -83 -44 -154 -81 -158 -81 -3 0 -22 -10 -43 -23 -20 -13 -93 -53
-162 -89 -69 -36 -154 -82 -190 -102 -36 -20 -90 -48 -120 -63 -30 -14 -57
-28 -60 -32 -3 -3 -45 -26 -94 -51 -50 -25 -98 -53 -108 -62 -10 -10 -18 -16
-18 -13 0 6 -75 -32 -110 -55 -14 -10 -37 -20 -53 -24 -15 -3 -27 -13 -27 -21
0 -8 -3 -14 -7 -13 -12 4 -103 -34 -103 -42 0 -4 -24 -18 -53 -30 -28 -12 -54
-25 -57 -29 -3 -4 -26 -18 -53 -31 -26 -14 -47 -28 -47 -31 0 -4 -20 -14 -45
-24 -25 -9 -51 -22 -58 -29 -14 -13 -68 -40 -82 -41 -5 0 -17 -7 -25 -15 -8
-9 -34 -24 -57 -34 -24 -11 -43 -22 -43 -27 0 -4 -23 -15 -50 -25 -47 -17 -50
-20 -51 -53 -1 -20 -2 -58 -4 -86 -1 -27 -5 -158 -9 -290 -3 -132 -8 -289 -11
-350 -3 -60 -7 -191 -10 -290 -10 -358 -16 -532 -20 -650 -2 -66 -7 -214 -10
-330 -3 -115 -8 -255 -10 -310 -2 -55 -7 -211 -11 -346 l-6 -245 218 3 c121 1
260 2 309 2 50 -1 95 -1 100 0 6 1 40 3 78 4 l67 3 0 -253 0 -253 37 0 c46 0
18092 857 18231 866 l103 6 -6 37 -6 36 221 0 c121 0 220 2 220 5 0 3 73 5
163 4 89 0 167 2 173 4 13 4 10 57 -6 135 -5 26 -10 65 -10 87 0 21 -4 41 -10
45 -5 3 -7 12 -3 20 3 9 1 21 -5 28 -6 7 -13 37 -17 67 -10 97 -27 185 -37
198 -6 6 -8 12 -5 12 2 0 -1 32 -9 71 -7 39 -13 74 -12 77 1 4 -1 14 -5 22
-10 26 -27 122 -33 184 -3 34 -10 63 -15 66 -5 3 -10 28 -13 55 -2 28 -5 50
-6 50 -1 0 -3 16 -6 35 -2 19 -9 58 -15 85 -6 28 -12 59 -14 70 -18 94 -27
144 -28 168 -1 15 -4 27 -8 27 -4 0 -10 26 -15 58 -4 31 -9 62 -10 67 -1 6 -2
27 -3 48 -1 24 -5 36 -11 32 -7 -4 -8 3 -4 20 4 16 2 30 -4 34 -6 3 -13 31
-15 61 -8 85 -19 140 -28 140 -5 0 -4 11 1 25 5 14 6 25 1 25 -8 0 -35 143
-34 180 0 8 -3 20 -7 25 -10 13 -28 106 -35 179 -3 33 -9 64 -14 70 -9 11 -14
38 -26 139 -4 31 -11 57 -16 57 -5 0 -4 11 1 25 8 20 6 25 -6 25 -8 0 -12 5
-9 10 4 6 1 35 -5 66 -6 30 -13 69 -15 87 -2 18 -4 34 -5 37 -1 3 -1 13 0 24
1 10 -3 22 -8 25 -5 3 -13 31 -17 61 -7 60 -12 91 -14 103 -2 10 -59 9 -65 -2
-3 -5 -39 -9 -78 -10 -210 -1 -398 -7 -398 -11 0 -3 -68 -5 -152 -5 -95 0
-156 -4 -162 -11 -7 -6 -44 -9 -94 -8 -45 2 -82 0 -82 -5 0 -4 -10 -7 -22 -5
-59 9 -118 10 -118 3 0 -4 -36 -6 -80 -4 -44 2 -82 1 -84 -4 -3 -4 -32 -4 -65
-1 -33 3 -68 3 -78 -1 -10 -4 -52 -6 -93 -5 -41 1 -78 -2 -82 -8 -4 -5 -72
-11 -160 -12 -84 -1 -153 -3 -153 -4 0 -6 -293 -8 -302 -2 -7 4 -15 32 -18 62
-3 30 -9 73 -15 94 -5 22 -7 44 -4 48 3 4 1 8 -3 8 -9 0 -31 111 -39 194 -3
22 -8 44 -13 50 -5 6 -12 34 -16 61 -11 92 -29 175 -36 175 -4 0 -6 7 -5 16 2
10 -4 51 -12 93 -8 42 -15 88 -16 104 0 15 -4 27 -7 27 -7 0 -34 149 -30 164
1 4 -3 13 -8 20 -5 6 -17 63 -27 126 -9 63 -21 120 -26 127 -5 6 -11 31 -13
55 -4 50 -22 146 -30 158 -3 4 -7 23 -9 41 -3 19 -9 56 -15 84 -5 27 -7 53 -5
57 2 3 0 9 -4 12 -5 3 -7 17 -4 31 2 14 0 25 -6 25 -11 0 -27 84 -31 163 0 17
-5 26 -11 22 -7 -4 -9 2 -4 19 3 15 1 32 -4 39 -6 7 -14 37 -17 67 -3 30 -13
82 -21 115 -8 33 -21 94 -28 135 -8 41 -21 107 -30 146 -8 39 -18 95 -21 124
-3 30 -9 57 -14 60 -5 3 -12 29 -15 59 -7 70 -26 173 -34 185 -3 6 -7 19 -8
31 -1 11 -7 47 -13 79 -6 32 -8 62 -6 66 3 5 0 12 -6 15 -5 4 -8 13 -5 21 3 7
1 16 -3 19 -5 2 -12 25 -16 51 -3 25 -9 56 -12 67 -3 12 -5 32 -4 45 0 12 -3
22 -7 22 -5 0 -6 14 -4 31 3 22 1 30 -7 25 -6 -4 -11 -1 -11 7 0 9 183 103
480 248 302 146 480 238 480 247 0 8 -72 299 -160 647 -88 348 -160 640 -160
649 0 9 7 16 15 16 8 0 15 4 15 8 0 5 24 19 53 33 28 13 54 27 57 31 3 3 30
16 60 28 30 12 57 25 60 29 5 7 60 34 72 35 4 1 16 8 26 17 20 17 53 33 65 31
4 -1 7 3 7 8 0 6 6 10 14 10 8 0 21 6 28 13 18 16 60 38 82 41 10 1 21 8 25
15 5 7 11 12 15 12 3 -1 19 5 35 13 16 9 31 12 35 9 3 -4 6 -1 6 6 0 7 5 9 10
6 6 -3 10 1 10 10 0 9 5 13 10 10 6 -3 10 -1 10 5 0 6 5 8 10 5 6 -3 10 -1 10
4 0 6 3 10 8 9 14 -3 62 22 62 32 0 5 3 10 8 9 15 -2 52 14 52 23 0 5 4 7 10
3 5 -3 18 3 30 15 11 11 22 20 25 19 17 -2 65 14 65 22 0 6 4 8 9 4 5 -3 15 1
23 8 13 13 57 40 68 42 6 1 71 41 85 52 6 4 16 8 23 9 6 1 18 2 25 3 13 1 16
53 5 81 -11 26 -18 67 -24 132 -3 35 -10 65 -14 68 -5 3 -11 28 -14 55 -8 78
-16 125 -27 169 -5 23 -12 55 -14 71 -2 17 -7 48 -11 70 -12 67 -15 89 -17
110 -2 11 -5 25 -8 30 -4 6 -9 26 -13 45 -3 19 -8 46 -11 60 -3 14 -6 38 -7
53 -1 15 -4 30 -9 32 -4 3 -5 14 -2 26 3 12 1 24 -5 28 -5 3 -13 33 -16 66 -3
33 -17 119 -31 190 -15 72 -27 145 -28 162 -1 18 -6 33 -10 33 -5 0 -5 10 -2
21 4 12 3 24 -3 28 -5 3 -15 46 -21 95 -6 49 -15 94 -20 100 -5 6 -12 36 -16
66 -7 72 -24 171 -32 190 -3 8 -7 22 -8 30 -2 17 -16 104 -22 140 -2 14 -4 37
-4 53 1 15 -3 27 -8 27 -8 0 -20 61 -27 149 -2 24 -9 49 -14 56 -5 6 -7 15 -4
18 4 3 3 14 -1 24 -5 10 -10 29 -11 41 -2 13 -8 49 -15 80 -6 31 -13 70 -15
87 -2 16 -11 61 -19 98 -8 38 -13 73 -10 77 3 5 1 12 -5 15 -6 4 -8 15 -5 25
9 27 -16 30 -60 8z m-3868 -7828 c162 -602 297 -1110 300 -1127 l6 -33 -74 -2
c-41 -1 -103 -1 -138 0 -35 1 -69 -2 -76 -8 -6 -5 -76 -12 -156 -14 -79 -3
-145 -5 -147 -5 -19 -4 -316 -15 -372 -14 -41 1 -77 -2 -80 -7 -3 -6 -73 -12
-156 -14 -82 -3 -150 -5 -151 -6 -11 -2 -252 -10 -333 -10 -57 0 -107 -4 -110
-9 -3 -5 -104 -13 -225 -17 -121 -4 -254 -9 -295 -10 -41 -2 -101 -3 -133 -3
-32 0 -64 -4 -71 -10 -6 -5 -99 -12 -205 -16 -107 -3 -198 -8 -202 -11 -5 -3
-66 -5 -136 -6 -70 0 -130 -4 -133 -9 -3 -4 -62 -11 -130 -14 -69 -4 -177 -9
-240 -13 -63 -3 -148 -6 -187 -6 -42 -1 -73 -5 -73 -11 0 -9 -124 -18 -292
-19 -38 -1 -68 -4 -68 -7 0 -3 -23 -4 -51 -1 -27 2 -56 -1 -63 -7 -7 -6 -63
-12 -124 -13 -62 -2 -112 -5 -112 -8 0 -3 -28 -5 -62 -5 -114 -1 -282 -15
-287 -24 -3 -5 -30 -8 -58 -6 -29 1 -53 0 -53 -4 0 -6 -156 -15 -278 -16 -34
0 -62 -2 -62 -5 0 -3 -25 -4 -55 -2 -30 2 -55 -1 -55 -6 0 -9 -118 -21 -266
-27 -129 -4 -254 -18 -254 -26 0 -5 -25 -7 -55 -5 -30 3 -55 2 -55 -2 0 -4
-24 -7 -52 -7 -29 0 -90 -4 -135 -9 -69 -7 -83 -6 -83 6 0 9 123 67 333 158
1207 521 1801 796 3887 1797 817 391 1494 711 1504 710 17 -2 57 -144 313
-1097z"/>
</g>
</svg>
