<svg width="166" height="13" viewBox="0 0 166 13" fill="none" xmlns="http://www.w3.org/2000/svg">
<path d="M0 3.30641C0 1.32256 3.90757 0.300583 11.6626 0.300583H22.4836C25.1888 0.300583 26.9923 0.541049 28.0143 1.02198C28.9761 1.50291 29.4571 2.40466 29.4571 3.60699V11.7828C29.4571 12.384 28.8559 12.6846 27.6536 12.6846C26.4512 12.6846 25.8501 12.384 25.8501 11.7828V10.8811C23.205 12.0233 19.2373 12.5643 14.0071 12.5643H7.45444C5.29025 12.5643 3.48675 12.2638 2.10408 11.6626C0.721398 11.0614 0 10.2799 0 9.25793C0 7.45444 1.26245 6.25211 3.78734 5.65095C6.31223 5.04978 10.2198 4.68908 15.51 4.68908H25.7298V3.24629C25.7298 2.70524 25.4894 2.28443 24.9483 2.10408C24.4073 1.86361 23.3853 1.74338 21.9425 1.74338H12.1435C6.43246 1.68326 3.60699 2.22431 3.60699 3.30641C3.60699 3.90757 3.00582 4.20815 1.80349 4.20815C0.601165 4.20815 0 3.90757 0 3.30641ZM13.947 11.1817C21.8223 11.1817 25.79 9.61863 25.79 6.49258V6.07176H15.5702C11.2418 6.07176 8.35619 6.192 6.97351 6.49258C5.53071 6.85328 4.62897 7.21398 4.20815 7.63479C3.78734 8.05561 3.60699 8.59665 3.60699 9.19782C3.60699 9.79898 4.0278 10.2799 4.80932 10.6406C5.59083 11.0013 6.49258 11.1817 7.45444 11.1817H13.947V11.1817Z" fill="#EDD69E"/>
<path d="M50.1371 1.68326C42.2018 1.68326 38.2341 3.24629 38.2341 6.43246V11.8429C38.2341 12.4441 37.6329 12.7447 36.4306 12.7447C35.2282 12.7447 34.6271 12.4441 34.6271 11.8429V1.02198C34.6271 0.420814 35.2282 0.120232 36.4306 0.120232C37.6329 0.120232 38.2341 0.420814 38.2341 1.08209V1.98384C40.9994 0.841629 44.9671 0.300581 50.1371 0.300581H52.1811C57.5314 0.300581 61.439 0.601163 63.9038 1.26244C66.3686 1.86361 67.631 3.12605 67.631 4.98966V11.8429C67.631 12.4441 67.0298 12.7447 65.8275 12.7447C64.6252 12.7447 64.024 12.4441 64.024 11.8429V5.04978C64.024 3.54687 63.1223 2.64512 61.2587 2.22431C59.6355 1.86361 56.81 1.74338 52.8424 1.74338C52.662 1.74338 52.4215 1.74338 52.2412 1.74338H50.1371V1.68326Z" fill="#EDD69E"/>
<path d="M71.6588 3.30641C71.6588 1.32256 75.5664 0.300583 83.3214 0.300583H94.1424C96.8476 0.300583 98.6511 0.541049 99.6731 1.02198C100.635 1.50291 101.116 2.40466 101.116 3.60699V11.7828C101.116 12.384 100.515 12.6846 99.3124 12.6846C98.1101 12.6846 97.5089 12.384 97.5089 11.7828V10.8811C94.8638 12.0233 90.8961 12.5643 85.666 12.5643H79.1734C77.0092 12.5643 75.2057 12.2638 73.823 11.6626C72.4403 11.0614 71.7189 10.2799 71.7189 9.25793C71.7189 7.45444 72.9814 6.25211 75.5063 5.65095C78.0312 5.04978 81.9387 4.68908 87.229 4.68908H97.4488V3.24629C97.4488 2.70524 97.2083 2.28443 96.6673 2.10408C96.1262 1.86361 95.1042 1.74338 93.6614 1.74338H83.8023C78.1514 1.74338 75.3259 2.28443 75.3259 3.36652C75.3259 3.96769 74.7248 4.26827 73.5224 4.26827C72.26 4.20815 71.6588 3.90757 71.6588 3.30641ZM85.6058 11.1817C93.4811 11.1817 97.4488 9.61863 97.4488 6.49258V6.07176H87.229C82.9006 6.07176 80.015 6.192 78.6323 6.49258C77.1895 6.79316 76.2878 7.15386 75.9271 7.57467C75.5063 7.99549 75.3259 8.53654 75.3259 9.1377C75.3259 9.73887 75.7467 10.2198 76.5283 10.5805C77.3098 10.9412 78.2115 11.1215 79.1734 11.1215H85.6058V11.1817Z" fill="#EDD69E"/>
<path d="M115.844 12.5643L103.28 0.961863C103.1 0.781514 102.979 0.661281 102.979 0.541048C102.979 0.180349 103.521 0 104.663 0C105.504 0 106.166 0.180349 106.586 0.601165L118.55 11.2418L131.054 0.541048C131.415 0.180349 132.136 0 133.158 0C134.18 0 134.721 0.180349 134.721 0.541048C134.721 0.661281 134.601 0.84163 134.42 1.02198L121.014 12.6245H115.844V12.5643Z" fill="#EDD69E"/>
<path d="M135.743 3.30641C135.743 1.32256 139.651 0.300583 147.406 0.300583H158.227C160.932 0.300583 162.735 0.541049 163.757 1.02198C164.719 1.50291 165.2 2.40466 165.2 3.60699V11.7828C165.2 12.384 164.599 12.6846 163.397 12.6846C162.194 12.6846 161.593 12.384 161.593 11.7828V10.8811C158.948 12.0233 154.98 12.5643 149.75 12.5643H143.258C141.093 12.5643 139.29 12.2638 137.907 11.6626C136.524 11.0614 135.803 10.2799 135.803 9.25793C135.803 7.45444 137.066 6.25211 139.59 5.65095C142.115 5.04978 146.023 4.68908 151.313 4.68908H161.533V3.24629C161.533 2.70524 161.292 2.28443 160.751 2.10408C160.21 1.86361 159.188 1.74338 157.746 1.74338H147.886C142.236 1.74338 139.41 2.28443 139.41 3.36652C139.41 3.96769 138.809 4.26827 137.607 4.26827C136.344 4.20815 135.743 3.90757 135.743 3.30641ZM149.69 11.1817C157.565 11.1817 161.533 9.61863 161.533 6.49258V6.07176H151.313C146.985 6.07176 144.099 6.192 142.716 6.49258C141.274 6.79316 140.372 7.15386 140.011 7.57467C139.59 7.99549 139.41 8.53654 139.41 9.1377C139.41 9.73887 139.831 10.2198 140.612 10.5805C141.394 10.9412 142.296 11.1215 143.258 11.1215H149.69V11.1817Z" fill="#EDD69E"/>
</svg>
