<svg width="61" height="11" viewBox="0 0 61 11" fill="none" xmlns="http://www.w3.org/2000/svg">
<path d="M30.4543 10.9346C27.2486 10.9346 23.4457 9.53737 19.3914 8.04905C15.0857 6.46962 10.5914 4.82943 6.66286 4.82943C5.02857 4.82943 3.80286 4.82943 2.92286 4.8598C0.817143 4.8598 0.44 4.8598 0.188571 4.58644C0 4.43457 0 4.19158 0 4.10046C0 3.88784 0 3.64485 2.01143 2.79438C3.20571 2.27803 4.33714 1.91354 5.06 1.76167C5.21714 1.7313 5.46857 1.67055 5.72 1.6098L5.87714 2.33877C5.65714 2.39952 5.40571 2.4299 5.24857 2.49064C3.92857 2.70326 1.72857 3.64485 0.942857 4.10046C1.32 4.13083 1.98 4.10046 2.89143 4.10046C3.77143 4.10046 4.99714 4.07008 6.63143 4.07008C10.7171 4.07008 15.2429 5.74064 19.6429 7.35046C23.6343 8.8084 27.3743 10.2056 30.4543 10.2056V10.9346Z" fill="#EDD69E"/>
<path d="M12.9486 3.70561C12.76 3.46262 12.7286 3.15888 12.8543 2.91589C13.1057 2.42991 13.7029 1.2757 29.8257 1.24533C30.0772 1.24533 30.2657 1.24533 30.3914 1.24533V2.0958C30.2657 2.0958 30.0772 2.0958 29.8257 2.0958C15.5886 2.12617 13.8286 3.00701 13.64 3.31075C13.6714 3.28038 13.6714 3.21963 13.64 3.18926L12.9486 3.70561Z" fill="#D2B870"/>
<path d="M5.72 2.30841L5.53143 1.60981C8.10858 0.941589 18.7629 0 30.2657 0V0.728972C18.8257 0.728972 8.26572 1.67056 5.72 2.30841Z" fill="#AE9C5E"/>
<path d="M30.4543 8.5958C27.3743 8.5958 22.5029 6.95561 17.7886 5.3458C12.7286 3.64486 7.51143 1.88318 5.24857 2.46028L5.06 1.76168C7.57428 1.12383 12.6657 2.85514 18.04 4.67757C22.6914 6.25701 27.5 7.86683 30.4543 7.86683V8.5958Z" fill="#EDD69E"/>
<path d="M30.0771 10.9346V10.2056C33.1257 10.2056 36.8972 8.80841 40.8886 7.35046C45.2886 5.74065 49.8143 4.07009 53.9 4.07009C55.5343 4.07009 56.76 4.07009 57.64 4.10047C58.5514 4.10047 59.2114 4.13084 59.5886 4.10047C58.8029 3.64486 56.6029 2.70327 55.3143 2.46028C55.0943 2.39953 54.8743 2.36916 54.6543 2.30841L54.8114 1.57944C55.0629 1.64018 55.2829 1.67056 55.5029 1.73131C56.2257 1.8528 57.3571 2.24766 58.5514 2.73364C60.5629 3.58411 60.5629 3.85747 60.5629 4.03972C60.5629 4.16121 60.5629 4.37383 60.3743 4.55607C60.0914 4.82944 59.7143 4.79906 57.64 4.79906C56.76 4.79906 55.5343 4.76869 53.9 4.76869C49.94 4.76869 45.4771 6.40888 41.1714 7.98831C37.1171 9.50701 33.2829 10.9346 30.0771 10.9346Z" fill="#EDD69E"/>
<path d="M47.5829 3.70562L46.8914 3.18926C46.8914 3.21964 46.8914 3.25001 46.8914 3.28039C46.7343 3.06777 45.2572 2.06543 30.5172 2.06543H30.14V1.21497H30.5172C46.8286 1.21497 47.4257 2.42992 47.6771 2.88553C47.8029 3.15889 47.7714 3.46263 47.5829 3.70562Z" fill="#D2B870"/>
<path d="M54.6229 2.30841C52.4857 1.76168 42.1771 0.728972 30.0771 0.728972V0C42.24 0 52.6429 1.06308 54.8114 1.60981L54.6229 2.30841Z" fill="#AE9C5E"/>
<path d="M30.0771 8.5958V7.86683C33.0314 7.86683 37.84 6.22664 42.4914 4.67757C47.8657 2.85514 52.9571 1.12383 55.4714 1.76168L55.2829 2.46028C52.9886 1.88318 47.7714 3.64486 42.7429 5.37617C38.0286 6.95561 33.1571 8.5958 30.0771 8.5958Z" fill="#EDD69E"/>
</svg>
