<svg xmlns="http://www.w3.org/2000/svg" xmlns:xlink="http://www.w3.org/1999/xlink" viewBox="0 0 212.17 66.08"><defs><style>.cls-1{fill:none;}.cls-15,.cls-2{fill:#f58b8c;}.cls-3{fill:#6fcde1;}.cls-4{clip-path:url(#clip-path);}.cls-5{fill:#6ecde2;}.cls-6{clip-path:url(#clip-path-2);}.cls-7{clip-path:url(#clip-path-3);}.cls-8{clip-path:url(#clip-path-4);}.cls-9{clip-path:url(#clip-path-5);}.cls-10{clip-path:url(#clip-path-6);}.cls-11{clip-path:url(#clip-path-7);}.cls-12{clip-path:url(#clip-path-8);}.cls-13{clip-path:url(#clip-path-9);}.cls-14{fill:#808285;}.cls-15{stroke:#f58c8d;stroke-miterlimit:10;stroke-width:0.25px;}</style><clipPath id="clip-path"><path class="cls-1" d="M64.92,13.45V25a3,3,0,0,1-3,3h-.77A12.65,12.65,0,0,0,61,26.66c-.09-.4-.19-.79-.3-1.19h1.29a.43.43,0,0,0,.44-.44V13.45a.64.64,0,0,0-.63-.65.79.79,0,0,0-.25,0,29,29,0,0,0-5.92,3.74,23.58,23.58,0,0,0-1.83-1.78h0a32,32,0,0,1,6.7-4.26,3.15,3.15,0,0,1,1.29-.27A3.18,3.18,0,0,1,64.92,13.45Z"/></clipPath><clipPath id="clip-path-2"><path class="cls-1" d="M61,26.66a22.19,22.19,0,0,0-7.2-11.85,23.88,23.88,0,0,0-7.31-4.42,3.14,3.14,0,0,0-1.11-.2,3.18,3.18,0,0,0-3.18,3.18V25a3,3,0,0,0,3,3H61.17A12.65,12.65,0,0,0,61,26.66ZM45.12,25.47a.44.44,0,0,1-.44-.44V13.37a.66.66,0,0,1,.65-.65.68.68,0,0,1,.23,0,21.22,21.22,0,0,1,6.52,3.94A20.06,20.06,0,0,1,58,25.47Z"/></clipPath><clipPath id="clip-path-3"><path class="cls-1" d="M86.05,12.61a9.14,9.14,0,0,0-13,0,9,9,0,0,0-2.7,6.61,9,9,0,0,0,9.14,9.1,9.08,9.08,0,0,0,6.59-2.68,8.89,8.89,0,0,0,2.73-6.52A8.89,8.89,0,0,0,86.05,12.61ZM84.31,24a6.8,6.8,0,0,1-9.55,0,6.74,6.74,0,0,1-1.93-4.87,6.75,6.75,0,0,1,2-4.9,6.39,6.39,0,0,1,4.76-2,6.47,6.47,0,0,1,4.77,2,6.71,6.71,0,0,1,2,4.93A6.59,6.59,0,0,1,84.31,24Z"/></clipPath><clipPath id="clip-path-4"><path class="cls-1" d="M95.29,10.84a1,1,0,0,0-1-.64h-.47a1,1,0,0,0-1,1.45L99.7,27.4a1.05,1.05,0,0,0,1,.63h0a1,1,0,0,0,1-.64l6.69-15.74a1,1,0,0,0-1-1.45H107a1,1,0,0,0-1,.64l-5.36,13Z"/></clipPath><clipPath id="clip-path-5"><path class="cls-1" d="M125.4,26.88h0a1.15,1.15,0,0,0-1.14-1.15h-7.54V20.11h6.89A1.14,1.14,0,0,0,124.75,19h0a1.14,1.14,0,0,0-1.14-1.15h-6.89V12.49h7.54a1.15,1.15,0,0,0,1.14-1.15h0a1.14,1.14,0,0,0-1.14-1.14h-8.81a1.15,1.15,0,0,0-1.15,1.14V26.88A1.16,1.16,0,0,0,115.45,28h8.81A1.15,1.15,0,0,0,125.4,26.88Z"/></clipPath><clipPath id="clip-path-6"><path class="cls-1" d="M149.72,26l0-11.55-6,10.13a1,1,0,0,1-.87.49h0a1,1,0,0,1-.87-.49l-6-10.06V26a1.2,1.2,0,0,1-1.2,1.2h0a1.2,1.2,0,0,1-1.2-1.2V10.93a1.2,1.2,0,0,1,1.2-1.2h.17a1.2,1.2,0,0,1,1,.59L142.85,22l6.85-11.71a1.22,1.22,0,0,1,1-.59h.16a1.2,1.2,0,0,1,1.2,1.2l0,15.1a1.19,1.19,0,0,1-1.2,1.2h0A1.2,1.2,0,0,1,149.72,26Z"/></clipPath><clipPath id="clip-path-7"><path class="cls-1" d="M172,26.44v0a1.07,1.07,0,0,1-1.06,1.06H160.35a1.06,1.06,0,0,1-1.06-1.06V11.11a1.05,1.05,0,0,1,1.06-1.06h10.23a1.06,1.06,0,0,1,1.06,1.06v.05a1.06,1.06,0,0,1-1.06,1.06h-8.79V17.6h7.71a1.05,1.05,0,0,1,1.06,1.06h0a1.05,1.05,0,0,1-1.06,1.06h-7.71v5.65h9.14A1.07,1.07,0,0,1,172,26.44Z"/></clipPath><clipPath id="clip-path-8"><path class="cls-1" d="M194.9,11.3V26.16a1.38,1.38,0,0,1-1.38,1.39h0a1.37,1.37,0,0,1-1.08-.52L182.35,14.5V26.3a1.25,1.25,0,0,1-1.25,1.25h0a1.25,1.25,0,0,1-1.25-1.25V11.44a1.39,1.39,0,0,1,1.39-1.39h0a1.39,1.39,0,0,1,1.08.52L192.4,23.1V11.3a1.25,1.25,0,0,1,1.25-1.25h0A1.25,1.25,0,0,1,194.9,11.3Z"/></clipPath><clipPath id="clip-path-9"><path class="cls-1" d="M205.39,12.22h-3.23a1.08,1.08,0,0,1-1.08-1.08h0a1.08,1.08,0,0,1,1.08-1.09h8.93a1.08,1.08,0,0,1,1.08,1.09h0a1.08,1.08,0,0,1-1.08,1.08h-3.23V26.46a1.08,1.08,0,0,1-1.08,1.09h-.3a1.09,1.09,0,0,1-1.09-1.09Z"/></clipPath></defs><title>MovementLaboratory_color</title><g id="Layer_2" data-name="Layer 2"><g id="Layer_1-2" data-name="Layer 1"><circle class="cls-2" cx="14.97" cy="8.92" r="8.92"/><path class="cls-3" d="M27.19,44.84c-.05-.29-.11-.59-.17-.88C24.52,32.5,15.3,24,6.13,20.56a4.66,4.66,0,0,0-1.58-.28A4.58,4.58,0,0,0,0,24.86V44a27.67,27.67,0,0,0,.6,5.67A12.89,12.89,0,0,0,13.66,60.32C21.23,60.32,28.85,54.6,27.19,44.84Z"/><circle class="cls-2" cx="25.61" cy="24.62" r="4.34"/><g class="cls-4"><path class="cls-5" d="M53.75,10.27v0Z"/><rect class="cls-5" x="53.75" y="10.27" width="5.58" height="17.74"/><rect class="cls-3" x="59.33" y="10.27" width="5.58" height="17.74"/><path class="cls-3" d="M64.92,28v0Z"/></g><g class="cls-6"><rect class="cls-5" x="44.68" y="12.72" width="6.98" height="12.75"/><rect class="cls-3" x="51.66" y="12.72" width="6.35" height="12.75"/><path class="cls-5" d="M42.15,10.19v0Z"/><rect class="cls-5" x="42.15" y="10.19" width="9.51" height="17.82"/><rect class="cls-3" x="51.66" y="10.19" width="9.51" height="17.82"/><path class="cls-3" d="M61.17,28v0Z"/></g><g class="cls-7"><rect class="cls-5" x="72.83" y="12.25" width="6.72" height="13.73"/><rect class="cls-3" x="79.55" y="12.25" width="6.72" height="13.73"/><path class="cls-5" d="M70.32,9.88v0Z"/><rect class="cls-5" x="70.32" y="9.88" width="9.23" height="18.43"/><rect class="cls-3" x="79.55" y="9.88" width="9.23" height="18.43"/><path class="cls-3" d="M88.78,28.32v0Z"/></g><g class="cls-8"><rect class="cls-5" x="92.61" y="10.2" width="0.21" height="17.83"/><rect class="cls-5" x="92.82" y="10.2" width="7.79" height="17.83"/><rect class="cls-3" x="100.61" y="10.2" width="7.79" height="17.83"/><rect class="cls-3" x="108.39" y="10.2" width="0.21" height="17.83"/></g><g class="cls-9"><path class="cls-5" d="M114.3,10.2v0Z"/><rect class="cls-5" x="114.3" y="10.2" width="5.55" height="17.83"/><rect class="cls-3" x="119.85" y="10.2" width="5.55" height="17.83"/><path class="cls-3" d="M125.4,28v0Z"/></g><g class="cls-10"><path class="cls-5" d="M133.5,9.73v0Z"/><rect class="cls-5" x="133.5" y="9.73" width="9.31" height="17.5"/><rect class="cls-3" x="142.81" y="9.73" width="9.31" height="17.5"/><rect class="cls-3" x="152.12" y="9.73" height="17.5"/></g><g class="cls-11"><path class="cls-5" d="M159.29,10.05v0Z"/><rect class="cls-5" x="159.29" y="10.05" width="6.35" height="17.5"/><rect class="cls-3" x="165.64" y="10.05" width="6.35" height="17.5"/><path class="cls-3" d="M172,27.55v0Z"/></g><g class="cls-12"><path class="cls-5" d="M179.85,10.05v0Z"/><rect class="cls-5" x="179.85" y="10.05" width="7.52" height="17.5"/><rect class="cls-3" x="187.38" y="10.05" width="7.52" height="17.5"/><path class="cls-3" d="M194.9,27.55v0Z"/></g><g class="cls-13"><path class="cls-5" d="M201.08,10.05v0Z"/><rect class="cls-5" x="201.08" y="10.05" width="5.55" height="17.5"/><rect class="cls-3" x="206.63" y="10.05" width="5.55" height="17.5"/><path class="cls-3" d="M212.17,27.55v0Z"/></g><path class="cls-14" d="M42.46,34.63h1V47.06h7.65v.87H42.46Z"/><path class="cls-14" d="M65.62,44.19H57.9l-1.69,3.74h-1l6.12-13.3h1l6.12,13.3h-1Zm-.36-.82-3.5-7.67-3.48,7.67Z"/><path class="cls-14" d="M84.67,42.2a3.24,3.24,0,0,1,.75,2.22A3,3,0,0,1,84.18,47a6.11,6.11,0,0,1-3.67.91H74.59V34.63h5.54a5.64,5.64,0,0,1,3.38.89A2.93,2.93,0,0,1,84.71,38a3.06,3.06,0,0,1-.6,1.92,3.22,3.22,0,0,1-1.62,1.12A3.75,3.75,0,0,1,84.67,42.2Zm-9.11-6.73v5.3H80.1a4.53,4.53,0,0,0,2.68-.67,2.3,2.3,0,0,0,1-2,2.28,2.28,0,0,0-1-2,4.53,4.53,0,0,0-2.68-.67Zm7.89,11a2.35,2.35,0,0,0,1-2.08,2.32,2.32,0,0,0-1-2.07,5.36,5.36,0,0,0-2.94-.66h-5V47.1h5A5.26,5.26,0,0,0,83.45,46.42Z"/><path class="cls-14" d="M94.78,47.14a6.41,6.41,0,0,1-2.48-2.42,7,7,0,0,1,0-6.88,6.55,6.55,0,0,1,2.48-2.42,7.1,7.1,0,0,1,3.54-.88,7.19,7.19,0,0,1,3.53.87,6.41,6.41,0,0,1,2.48,2.42,7.08,7.08,0,0,1,0,6.91,6.38,6.38,0,0,1-2.48,2.41,7.5,7.5,0,0,1-7.07,0Zm6.56-.76a5.65,5.65,0,0,0,2.13-2.1,6.21,6.21,0,0,0,0-6,5.65,5.65,0,0,0-2.13-2.1,6.4,6.4,0,0,0-6,0,5.61,5.61,0,0,0-2.14,2.1,6.14,6.14,0,0,0,0,6,5.61,5.61,0,0,0,2.14,2.1,6.4,6.4,0,0,0,6,0Z"/><path class="cls-14" d="M121.63,47.93l-3.17-4.44a10.28,10.28,0,0,1-1.3.09h-3.8v4.35h-1V34.63h4.76a6,6,0,0,1,3.94,1.19,4.05,4.05,0,0,1,1.42,3.3,4,4,0,0,1-3.11,4.16l3.32,4.65Zm-4.47-5.2a5,5,0,0,0,3.25-.94,3.29,3.29,0,0,0,1.12-2.67,3.26,3.26,0,0,0-1.12-2.67,4.9,4.9,0,0,0-3.25-.94h-3.8v7.22Z"/><path class="cls-14" d="M138.1,44.19h-7.71l-1.69,3.74h-1l6.12-13.3h1l6.12,13.3h-1.05Zm-.36-.82-3.49-7.67-3.48,7.67Z"/><path class="cls-14" d="M149,35.51h-4.79v-.88h10.55v.88h-4.79V47.93h-1Z"/><path class="cls-14" d="M162.82,47.14a6.41,6.41,0,0,1-2.48-2.42,7,7,0,0,1,0-6.88,6.55,6.55,0,0,1,2.48-2.42,7.09,7.09,0,0,1,3.53-.88,7.2,7.2,0,0,1,3.54.87,6.41,6.41,0,0,1,2.48,2.42,7.08,7.08,0,0,1,0,6.91,6.38,6.38,0,0,1-2.48,2.41,7.5,7.5,0,0,1-7.07,0Zm6.56-.76a5.7,5.7,0,0,0,2.12-2.1,6.14,6.14,0,0,0,0-6,5.7,5.7,0,0,0-2.12-2.1,6.42,6.42,0,0,0-6.06,0,5.65,5.65,0,0,0-2.13,2.1,6.14,6.14,0,0,0,0,6,5.65,5.65,0,0,0,2.13,2.1,6.42,6.42,0,0,0,6.06,0Z"/><path class="cls-14" d="M189.67,47.93l-3.18-4.44a10,10,0,0,1-1.29.09h-3.8v4.35h-1V34.63h4.77a6,6,0,0,1,3.94,1.19,4.05,4.05,0,0,1,1.42,3.3,4.06,4.06,0,0,1-3.12,4.16l3.33,4.65Zm-4.47-5.2a5,5,0,0,0,3.25-.94,3.29,3.29,0,0,0,1.12-2.67,3.26,3.26,0,0,0-1.12-2.67,4.92,4.92,0,0,0-3.25-.94h-3.8v7.22Z"/><path class="cls-14" d="M201.83,43.35v4.58h-1V43.35l-5.36-8.72h1.06l4.81,7.83,4.81-7.83h1Z"/><path class="cls-15" d="M170.71,57a13,13,0,0,0,4-2.45c.28-.25.25.5.13.62a8.31,8.31,0,0,1-4.08,2.45,11.06,11.06,0,0,1-2.42,5.63c-2.62,3.52-6.4,4-4.47-1,1-2.58,8.29-14,11.84-17,2.78-2.3,3.85-.85,1.75,2a47.88,47.88,0,0,1-7.77,7.92A2.23,2.23,0,0,1,170.71,57ZM165,61.75c-.33.7-1.23,2.8-.68,3.27s1.65-.32,2.48-1.25c2.3-2.62,3-4.7,3.1-6.07a2.06,2.06,0,0,1-1.9-1.08C166.61,58.87,165.51,60.77,165,61.75ZM169.56,56c-.52-.75-1.35.2-.45.93a1.27,1.27,0,0,0,.83.22A2.37,2.37,0,0,0,169.56,56Zm7-8.7c2.75-3.52.32-2.77-2.1.2-1.65,2-3.4,4.48-4.93,6.78A38.26,38.26,0,0,0,176.56,47.32Z"/><path class="cls-15" d="M176.78,56.57c.61,0,1.48-.37,3.35-2,.28-.25.23.5.13.62S177.51,58,176,57c-.79-.55-.47-1.9.58-3.38a13,13,0,0,1,1.5-2c.2-.15.62.35.4.68a24.47,24.47,0,0,0-1.93,3C176.16,56.05,176.26,56.52,176.78,56.57Zm2.9-6.87a.81.81,0,0,0-1.07.4c-.18.35-.15.85.22,1C179.61,51.35,180.36,50,179.68,49.7Z"/><path class="cls-15" d="M183.58,52.47a1.87,1.87,0,0,1-.12-1.07c.18-.93,1.22-1.7,1.8-1.6s.6.57.2,1.32a9.56,9.56,0,0,1-1.15,1.48,3.23,3.23,0,0,1,.7,3.8,13.07,13.07,0,0,0,2.45-1.85c.3-.25.25.5.12.62s-1.9,1.95-3.27,2.15a2.5,2.5,0,0,1-1.15.5c-1.37.18-2.25-1.17-2.2-2.55s.73-1.45.95-1.17C182.39,53.67,183,53.07,183.58,52.47Zm-1.74,2.58a1.47,1.47,0,0,0,1,2.12,1,1,0,0,0,.4,0C182.11,56.62,181.89,55,181.84,55.05Zm2.74.1a4.39,4.39,0,0,0-.72-2.1c-.58.57-1.2,1.15-1.67,1.57.37.7,1.12,1.83,1.94,2A2.31,2.31,0,0,0,184.58,55.15Zm.33-4.45c0-.28-.68-.2-.93.77a.82.82,0,0,0,0,.58C184.56,51.45,185,50.9,184.91,50.7Z"/><path class="cls-15" d="M189.56,56.57c.6,0,1.47-.37,3.35-2,.27-.25.22.5.12.62S190.29,58,188.76,57c-.8-.55-.47-1.9.58-3.38a13,13,0,0,1,1.5-2c.19-.15.62.35.39.68a24.59,24.59,0,0,0-1.92,3C188.94,56.05,189,56.52,189.56,56.57Zm2.9-6.87a.8.8,0,0,0-1.07.4c-.18.35-.16.85.22,1C192.38,51.35,193.13,50,192.46,49.7Z"/><path class="cls-15" d="M197.46,51.35c2.35-.68,3.3,1.62,0,4.95-2.7,2.77-4.92.45-2.95-2.43a7.19,7.19,0,0,1,1.5-1.52s0-.08,0-.1A2.49,2.49,0,0,1,197.46,51.35Zm-.7,1.25c-3,2.5-2.23,4.22-1.33,4.17.53-.05,1.18-.4,2-1.45,2.55-3.1,1.1-4.22-.72-2.92A.15.15,0,0,1,196.76,52.6Z"/></g></g></svg>