<svg width="600" height="857" viewBox="0 0 600 857" fill="none" xmlns="http://www.w3.org/2000/svg">
<path d="M0 760.947H45.974V755.108H6.62343V692.831H0V760.947V760.947ZM105.585 742.653L113.766 760.947H120.779L89.6104 692.053H82.987L51.8182 760.947H58.4416L66.6236 742.653H105.585ZM69.3506 736.814L86.1041 699.059L102.857 736.814H69.3506ZM189.74 760.947H195.195V692.442H188.572V749.27L143.766 692.442H137.143V760.947H143.766V702.562L189.74 760.947ZM219.74 727.084C219.74 746.545 232.987 762.114 254.416 762.114C265.714 762.114 275.455 757.444 281.688 751.994V725.137H254.026V730.976H275.065V749.27H274.675C269.611 753.162 262.208 756.276 254.026 756.276C245.455 756.276 238.442 753.162 233.377 747.713C228.312 742.264 225.585 734.868 225.585 726.694V726.305C225.585 718.52 228.312 711.125 233.377 705.676C238.052 700.227 245.065 697.113 252.857 697.113C262.598 697.113 268.831 700.227 273.896 704.897L278.182 699.837C271.559 694.388 264.546 691.274 253.247 691.274C233.377 691.274 219.74 708.011 219.74 727.084ZM307.792 732.533C307.792 751.994 319.091 762.114 336.234 762.114C353.377 762.114 364.676 751.994 364.676 731.754V692.442H358.052V732.144C358.052 739.928 356.104 745.767 352.208 749.659C348.312 753.551 342.857 755.497 336.624 755.497C330 755.497 324.156 753.162 320.649 749.27C316.753 744.988 314.805 739.15 314.805 731.365V692.831H308.182V732.533H307.792ZM430.13 742.653L438.312 760.947H445.325L414.156 692.053H407.533L376.364 760.947H382.987L391.169 742.653H430.13ZM393.896 736.814L410.65 699.059L427.403 736.814H393.896ZM459.741 727.084C459.741 746.545 472.987 762.114 494.416 762.114C505.715 762.114 515.455 757.444 521.689 751.994V725.137H494.026V730.976H515.065V749.27H514.676C509.611 753.162 502.208 756.276 494.026 756.276C485.455 756.276 478.442 753.162 473.377 747.713C468.312 742.264 465.585 734.868 465.585 726.694V726.305C465.585 718.52 468.312 711.125 473.377 705.676C478.052 700.227 485.065 697.113 492.857 697.113C502.598 697.113 508.832 700.227 513.897 704.897L518.182 699.837C511.559 694.388 504.546 691.274 493.247 691.274C473.377 691.274 459.741 708.011 459.741 727.084ZM549.351 760.947H598.832V755.108H555.974V729.419H594.156V723.58H555.974V698.67H598.442V692.831H549.351V760.947ZM52.2079 650.016L59.2209 666.753H70.9092L40.9091 597.859H30.3896L0.389753 666.753H11.6883L18.7013 650.016H52.2079ZM22.2079 640.674L35.065 610.703L47.9221 640.674H22.2079ZM201.429 667.142H252.468V657.411H212.728V637.56H247.792V627.83H212.728V608.368H252.078V598.637H201.429V667.142ZM315.195 640.674L315.974 640.285C325.715 637.56 331.948 630.944 332.338 619.656V619.267C332.338 613.428 330.39 608.368 326.883 604.865C322.598 600.583 315.974 598.248 307.013 598.248H276.624V666.753H287.533V642.62H303.117H303.507L320.649 666.753H333.507L315.195 640.674ZM287.143 632.89V608.368H305.455C310.13 608.368 313.637 609.536 316.364 611.482C319.091 613.428 320.26 616.542 320.26 620.434V620.823C320.26 624.327 318.702 627.44 315.974 629.776C313.247 631.722 309.74 632.89 305.065 633.279H287.143V632.89ZM351.818 667.142H362.728V598.637H351.818V667.142ZM382.598 632.89C382.598 652.74 397.403 667.92 417.273 667.92C429.741 667.92 437.533 663.25 444.546 656.244L437.533 649.237C431.689 654.687 426.234 658.19 417.663 658.19C410.65 658.19 404.805 655.465 400.52 650.794C396.234 646.124 393.896 639.896 393.896 632.89V632.5C393.896 625.494 396.234 619.267 400.52 614.596C404.805 609.925 410.65 607.2 417.663 607.2C425.455 607.2 431.689 610.704 437.143 615.764L444.156 607.59C437.533 601.362 430.13 597.47 417.663 597.47C397.403 597.47 382.598 613.039 382.598 632.89ZM505.325 650.016L512.338 666.753H524.026L494.026 597.859H483.507L453.507 666.753H464.805L471.819 650.016H505.325ZM475.325 640.674L488.182 610.703L501.039 640.674H475.325ZM589.871 667.142H599.221V598.637H588.312V648.07L550.13 598.637H539.611V667.142H550.52V616.542L589.871 667.142ZM187.013 667.142H174.935L153.507 612.65L132.078 667.142H130.13L108.701 612.65L87.2729 667.142H75.1948L103.637 598.248H113.766L130.909 641.453L148.052 598.248H158.182L187.013 667.142ZM92.3378 838.404L99.3507 855.141H111.039L81.039 786.247H70.5197L40.5196 855.141H51.8182L58.8313 838.404H92.3378ZM62.3377 828.673L75.1948 798.702L88.0521 828.673H62.3377ZM241.948 838.404L248.961 855.141H260.65L230.65 786.247H220.13L190.13 855.141H201.429L208.442 838.404H241.948ZM211.948 828.673L224.805 798.702L237.662 828.673H211.948ZM301.169 786.636H275.844V855.141H301.169C322.598 855.141 337.403 840.35 337.792 820.888V820.499C337.403 801.427 322.598 786.636 301.169 786.636ZM326.104 821.277C326.104 828.284 323.766 834.122 319.481 838.404C315.195 842.685 308.961 845.021 301.559 845.021H287.143V796.367H301.559C308.961 796.367 315.195 799.091 319.481 803.373C323.377 808.044 326.104 813.882 326.104 821.277ZM561.039 827.894V854.751H572.338V827.505L599.611 786.247H587.143L567.273 817.774L547.403 786.247H534.546L561.039 827.894ZM358.052 855.141H409.091V845.41H369.351V825.559H404.416V815.828H369.351V796.367H408.702V786.636H358.052V855.141ZM478.052 855.141H480L483.117 846.967L501.429 800.648L522.858 855.141H534.935L506.494 786.247H496.364L479.221 829.451L462.078 786.247H451.948L423.507 855.141H435.585L457.013 800.648L478.052 855.141ZM119.611 821.277C119.611 841.128 134.416 856.308 154.286 856.308C166.753 856.308 174.546 851.637 181.559 844.631L174.546 837.625C168.701 843.074 163.247 846.577 154.675 846.577C147.662 846.577 141.818 843.853 137.533 839.182C133.247 834.511 130.909 828.284 130.909 821.277V820.888C130.909 813.882 133.247 807.654 137.533 802.984C141.818 798.313 147.662 795.588 154.675 795.588C162.468 795.588 168.701 799.091 174.156 804.151L181.169 795.977C174.546 789.75 167.143 785.857 154.675 785.857C134.026 785.468 119.611 801.427 119.611 821.277Z" fill="white"/>
<path d="M172.598 40.8691C177.273 27.246 190.13 17.5153 205.325 17.5153C220.52 17.5153 233.377 27.246 238.052 40.8691L292.208 207.071L258.702 309.438C257.923 311.385 256.364 312.941 254.026 312.941C215.065 311.774 177.273 309.049 140.26 305.157C139.871 305.157 139.87 305.157 139.481 305.157C135.585 305.157 132.078 308.271 132.078 312.552C132.078 314.888 132.858 316.834 134.416 318.002C162.858 342.134 193.247 365.488 224.806 388.452C227.143 390.398 229.091 393.123 229.091 396.237C229.091 397.794 228.702 398.961 228.312 400.129C209.221 442.166 166.754 471.748 117.273 471.748H38.9614C36.2341 471.748 34.286 469.412 34.286 467.077C34.286 466.688 34.2862 465.909 34.6758 465.52L172.598 40.8691Z" fill="white"/>
<path d="M598.831 558.157L428.182 33.0846C421.558 14.0123 403.636 0 382.208 0H232.597C231.428 0 230.26 1.16772 230.26 2.33541C230.26 3.11387 230.649 3.89233 231.428 4.28156C242.337 10.12 250.519 19.8508 254.805 31.917L345.195 309.439C345.974 311.385 347.532 312.942 349.87 312.942C388.831 311.774 426.623 309.049 463.636 305.157C464.026 305.157 464.026 305.157 464.415 305.157C468.312 305.157 471.818 308.271 471.818 312.552C471.818 314.888 471.039 316.834 469.48 318.002C440.26 342.523 409.48 366.656 377.143 390.009C375.194 391.177 374.026 393.512 374.026 395.848C374.026 396.626 374.026 397.405 374.415 397.794L385.714 432.825C410.259 509.114 481.948 563.995 566.493 563.995H595.325C598.052 563.995 600 561.66 600 559.325C599.221 558.936 599.221 558.546 598.831 558.157Z" fill="white"/>
</svg>
