<svg width="800" height="180" viewBox="0 0 800 180" fill="none" xmlns="http://www.w3.org/2000/svg">
<path d="M0 89.5352C0 138.679 39.6639 179.07 89.4118 179.07C139.16 179.07 178.824 139.352 178.824 89.5352C178.824 39.7186 138.487 0 89.4118 0C40.3361 0 0 39.7186 0 89.5352ZM98.1513 58.5681L120.336 80.7836C123.025 83.4764 123.697 86.1692 123.697 89.5352C123.697 92.9012 122.353 96.2672 120.336 98.2868L98.1513 120.502C96.8067 121.849 94.7899 121.849 93.4454 120.502C92.1008 119.156 92.1008 117.136 93.4454 115.79L115.63 93.5744C117.647 91.5548 117.647 87.5156 115.63 85.496L93.4454 63.2805C92.1008 61.9341 92.1008 59.9145 93.4454 58.5681C94.7899 57.2217 96.8067 57.2217 98.1513 58.5681ZM88.7395 14.8103V49.8166C88.7395 52.5094 88.0672 54.529 86.0504 56.5485L60.5042 82.8032C57.1429 86.1692 57.1429 92.228 60.5042 95.594L86.0504 121.175C88.0672 123.195 88.7395 125.215 88.7395 127.907V162.914C88.7395 167.626 84.7059 171.665 80 170.992C38.9916 166.953 6.72269 131.947 6.72269 89.5352C6.72269 47.1238 38.9916 11.4443 80 7.40517C84.7059 6.73197 88.7395 10.098 88.7395 14.8103Z" fill="white"/>
<path d="M602.353 100.306H594.958C596.303 101.653 597.647 103.672 598.319 105.019C601.681 111.077 603.025 117.136 603.025 123.868C603.025 131.273 601.008 138.005 597.647 144.064C594.286 150.123 589.58 154.162 583.529 157.528C578.151 160.894 571.429 162.24 564.706 162.24H546.555V100.306H540.504V168.299H566.723C574.118 168.299 581.513 166.28 588.235 162.914C594.958 159.548 600.336 154.162 603.698 147.43C607.731 140.698 609.748 133.293 609.748 124.541C609.748 117.136 608.403 110.404 605.042 102.999C603.698 102.326 603.025 100.98 602.353 100.306Z" fill="white"/>
<path d="M662.185 100.306H656.135V168.299H662.185V100.306Z" fill="white"/>
<path d="M516.975 90.8816V78.7641H531.765H533.782L541.849 90.8816H561.344L551.26 74.7249C557.311 72.0321 561.344 67.3197 564.034 61.9342C566.723 56.5486 568.067 50.4898 568.067 43.7578C568.067 33.6599 564.706 25.5815 557.983 19.5227C551.26 13.464 541.849 10.7712 529.748 10.7712H500.168V90.8816H516.975ZM516.975 26.9279H532.437C537.143 26.9279 540.504 27.6011 543.193 29.6207C545.882 31.6403 547.899 33.6599 549.244 36.3527C550.588 39.0455 551.26 42.4114 551.26 45.1042C551.26 49.8166 549.916 53.8558 546.555 57.2218C543.866 60.5878 538.487 62.6074 531.765 62.6074H516.975V26.9279V26.9279Z" fill="white"/>
<path d="M594.958 90.8816H617.143C614.454 88.1888 611.093 85.496 609.076 81.4568C605.714 76.0713 604.37 69.3393 604.37 62.6073C604.37 55.8753 605.714 49.8166 609.076 43.7578C612.437 37.699 616.471 33.6598 621.849 30.2939C627.227 26.9279 633.277 25.5815 640 25.5815C646.723 25.5815 652.773 26.9279 658.151 30.2939C663.53 33.6598 668.235 38.3722 671.597 43.7578C674.958 49.8166 676.303 55.8753 676.303 62.6073C676.303 69.3393 674.958 75.3981 671.597 81.4568C669.58 84.8228 666.891 88.1888 664.202 90.8816H685.714C685.714 90.2084 686.387 90.2084 686.387 89.5352C691.093 81.4568 693.782 72.7053 693.782 62.6073C693.782 53.1826 691.093 44.431 686.387 36.3526C681.681 28.2743 674.958 21.5423 666.891 16.8299C658.824 12.1175 650.084 9.42474 640 9.42474C630.588 9.42474 621.177 12.1175 613.109 16.8299C605.042 21.5423 598.32 28.2743 593.614 36.3526C588.908 44.431 586.219 53.1825 586.219 63.2805C586.219 72.7053 588.908 82.13 593.614 90.2084C594.286 90.2084 594.286 90.8816 594.958 90.8816Z" fill="white"/>
<path d="M792.605 100.306H784.538C785.882 101.653 787.227 102.999 787.899 105.019C791.261 111.077 793.277 117.809 793.277 124.541C793.277 131.947 791.261 138.005 787.899 144.064C784.538 150.123 779.832 154.835 773.782 158.201C767.731 161.567 761.008 163.587 754.286 163.587C747.563 163.587 740.84 161.567 734.79 158.201C728.74 154.835 724.034 150.123 720.672 144.064C717.311 138.005 715.294 131.273 715.294 124.541C715.294 117.809 717.311 111.077 720.672 105.019C721.345 102.999 722.689 101.653 724.034 100.306H716.639C715.966 100.98 715.966 100.98 715.294 101.653C711.261 108.385 709.244 115.79 709.244 124.541C709.244 133.293 711.261 140.698 715.294 147.43C719.328 154.162 724.706 159.548 731.429 163.587C738.151 167.626 745.546 169.646 754.286 169.646C762.353 169.646 769.748 167.626 777.143 163.587C784.538 159.548 789.916 154.162 793.95 147.43C797.983 140.698 800 133.293 800 124.541C800 116.463 797.983 109.058 793.95 101.653C793.277 100.98 793.277 100.306 792.605 100.306Z" fill="white"/>
<path d="M732.773 90.8816V78.7641H747.563H749.58L757.647 90.8816H777.143L767.059 74.7249C773.109 72.0321 777.143 67.3197 779.832 61.9341C782.521 56.5486 783.866 50.4898 783.866 43.7578C783.866 32.9867 780.504 24.9083 773.109 18.8495C766.387 12.7907 756.975 10.098 744.874 10.098H715.294V90.2084H732.773V90.8816ZM732.773 26.9279H748.235C752.941 26.9279 756.303 27.6011 758.992 29.6207C761.681 31.6403 763.698 33.6599 765.042 36.3526C766.387 39.0454 767.059 41.7382 767.059 44.431C767.059 49.1434 765.714 53.1826 762.353 56.5486C759.664 59.9145 754.286 61.9341 747.563 61.9341H732.773V26.9279Z" fill="white"/>
<path d="M482.017 100.306V138.679C482.017 144.064 480.672 148.103 478.655 152.143C476.639 156.182 473.95 158.874 469.916 160.894C466.555 162.914 461.849 164.26 457.143 164.26C452.437 164.26 448.403 162.914 444.37 160.894C441.008 158.874 437.647 156.182 435.63 152.143C433.613 148.103 432.269 144.064 432.269 138.679V100.306H426.218V138.679C426.218 144.737 427.563 150.123 430.252 154.835C432.941 159.548 436.302 162.914 441.008 165.606C445.714 168.299 450.42 168.972 456.471 168.972C462.521 168.972 467.227 167.626 471.933 165.606C476.639 162.914 480 159.548 482.689 154.835C485.378 150.123 486.723 144.737 486.723 138.679V100.306H482.017V100.306Z" fill="white"/>
<path d="M273.614 123.868C270.252 121.849 266.219 119.829 261.513 118.483C256.807 116.463 253.445 115.117 250.084 113.77C247.395 112.424 244.706 110.404 242.689 108.385C240.672 106.365 240 103.672 240 100.306H233.95V100.98C233.95 105.019 235.294 109.058 237.311 111.751C239.328 114.443 242.017 117.136 245.378 118.483C248.74 120.502 252.773 121.849 257.479 123.868C262.185 125.215 265.546 127.234 268.908 128.581C272.269 129.927 274.286 132.62 276.303 135.313C278.319 138.005 278.992 141.371 278.992 145.411C278.992 149.45 277.647 152.816 275.63 156.182C273.614 158.874 270.924 161.567 267.563 162.914C264.202 164.26 260.84 164.933 256.807 164.933C252.773 164.933 248.067 164.26 244.034 162.24C239.328 160.221 235.966 158.201 232.605 156.182L229.916 160.894C239.328 166.953 248.067 169.646 257.479 169.646C262.857 169.646 267.563 168.299 271.597 166.28C275.63 164.26 278.992 161.567 281.008 157.528C283.025 153.489 284.37 149.45 284.37 144.737C284.37 139.352 283.025 135.313 281.008 131.947C278.992 128.581 276.303 125.888 273.614 123.868Z" fill="white"/>
<path d="M420.84 90.8816V78.7641H435.63H437.647L445.714 90.8816H465.21L455.126 74.7249C461.177 72.0321 465.21 67.3197 467.899 61.9341C470.588 56.5486 471.933 50.4898 471.933 43.7578C471.933 32.9867 468.572 24.9083 461.177 18.8495C454.454 12.7907 445.042 10.098 432.941 10.098H403.361V90.2084H420.84V90.8816ZM420.84 26.9279H436.303C441.009 26.9279 444.37 27.6011 447.059 29.6207C449.748 31.6403 451.765 33.6599 453.109 36.3526C454.454 39.0454 455.126 41.7382 455.126 44.431C455.126 49.1434 453.782 53.1826 450.42 56.5486C447.731 59.9145 442.353 61.9341 435.63 61.9341H420.84V26.9279V26.9279Z" fill="white"/>
<path d="M355.63 100.306H349.58V168.299H355.63V100.306Z" fill="white"/>
<path d="M375.798 100.306H330.084V106.365H375.798V100.306Z" fill="white"/>
<path d="M241.345 90.8816V57.2217L265.546 90.8816H288.403L313.95 55.2021V90.8816H330.084V7.40515L276.975 80.7836L225.21 7.40515V90.8816H241.345Z" fill="white"/>
<path d="M375.798 10.7712H358.992V90.8816H375.798V10.7712Z" fill="white"/>
</svg>
